<?xml version="1.0" encoding="utf-8"?>
<!-- Generator: Adobe Illustrator 26.5.0, SVG Export Plug-In . SVG Version: 6.00 Build 0)  -->
<svg version="1.1" id="Calque_1" xmlns="http://www.w3.org/2000/svg" xmlns:xlink="http://www.w3.org/1999/xlink" x="0px" y="0px"
	 viewBox="0 0 184 72" style="enable-background:new 0 0 184 72;" xml:space="preserve">
<style type="text/css">
	.st0{fill:none;stroke:#082331;stroke-width:2;stroke-miterlimit:10;}
	.st1{fill:#082331;}
</style>
<path class="st0" d="M4.6,25.5c11.5-2.9,30.4-6.4,53.2-3.8C89.4,25.2,99.7,37,128,36c7.7-0.3,15.2-1.6,22.7-3.3
	c7.1-1.7,14.4-3.6,20.7-7.4c3.6-2.2,8.2-6,7.7-10.7c-0.5-4.3-4.9-7.7-8.5-9.2c-15.8-6.6-34.4-1.6-49.4,5
	C107.1,16.5,94.5,26,85.4,38.3c-2,2.7-3.8,5.4-5.4,8.3c-3.2,5.8-5.6,11.9-7.3,18.3"/>
<path class="st1" d="M71.5,68.3l5.1-5.2l-7-1.8L71.5,68.3l5.1-5.2l-7-1.8L71.5,68.3z"/>
</svg>
